<svg width="874" height="566" xmlns="http://www.w3.org/2000/svg" xmlns:xlink="http://www.w3.org/1999/xlink" xml:space="preserve" overflow="hidden"><defs><clipPath id="clip0"><rect x="1490" y="895" width="874" height="566"/></clipPath></defs><g clip-path="url(#clip0)" transform="translate(-1490 -895)"><path d="M716.372 144.507C741.755 139.488 768.658 141.997 792.61 151.794 800.139 155.03 809.782 160.028 809.187 169.648 809.231 179.797 810.64 190.475 807.866 200.337 805.599 206.92 798.224 203.64 793.953 201.196 776.825 191.575 757.452 184.266 737.462 186.116 726.278 186.952 713.928 191.884 709.129 202.759 703.581 213.525 706.135 227.768 715.183 235.848 727.886 248.088 745.079 253.504 760.732 260.835 782.527 271.072 805.841 283.004 817.399 305.35 825.699 319.527 825.699 336.391 824.884 352.33 824.092 374.631 810.53 394.665 793.469 408.204 773.677 422.668 748.69 429.449 724.297 428.722 702.04 429.757 679.496 424.98 659.661 414.809 653.717 411.55 646.914 407.478 645.483 400.279 643.348 391.032 643.92 381.368 644.624 371.967 645.065 367.256 647.685 360.079 653.739 361.686 663.051 364.504 670.536 371.373 679.694 374.653 701.071 383.481 726.543 388.302 748.448 378.55 765.95 370.977 773.545 346.21 760.842 331.195 745.564 313.671 721.765 308.366 702.106 297.402 682.689 288.266 663.844 274.66 655.346 254.252 645.703 229.64 645.901 199.523 662.016 177.64 674.147 159.147 695.039 148.404 716.372 144.507Z" fill="#323232" transform="matrix(1 0 0 1.00037 1490 895)"/><path d="M468.966 152.212C473.149 147.061 480.392 146.841 486.468 146.709 526.888 146.775 567.307 146.753 607.727 146.731 611.888 146.555 616.951 147.237 618.823 151.574 622.015 162.758 621.949 174.8 619.373 186.116 618.426 190.519 614.089 193.293 609.686 192.874 580.252 193.161 550.796 192.522 521.362 193.161 521.406 218.016 520.371 242.937 521.934 267.77 549.783 267.594 577.632 267.55 605.482 267.726 612.042 266.779 614.684 274.308 615.124 279.548 615.631 287.561 616.049 295.773 614.376 303.676 613.297 307.177 612.042 312.57 607.309 312.064 578.755 312.901 550.114 311.162 521.582 312.967 520.591 347.288 521.604 381.654 521.098 415.975 521.846 422.888 513.37 423.813 508.439 424.826 494.129 426.499 478.278 427.555 465.355 420.048 465.003 336.501 465.355 252.954 465.179 169.428 465.421 163.572 464.827 156.946 468.966 152.212Z" fill="#323232" transform="matrix(1 0 0 1.00037 1490 895)"/><path d="M50.5907 147.413C62.0606 144.177 74.257 146.356 86.013 145.762 92.3314 146.048 102.018 145.542 103.713 153.511 119.608 222.529 135.481 291.568 151.134 360.629 151.816 363.249 152.983 365.715 154.128 368.181 170.243 299.45 187.084 230.894 203.442 162.207 204.939 156.483 206.171 148.69 213.15 147.325 224.818 144.507 236.993 146.114 248.881 145.828 256.366 145.872 266.823 147.017 268.298 156.131 286.395 227.042 303.258 298.283 321.619 369.105 338.857 298.195 354.399 226.822 371.219 155.779 372.408 146.929 382.336 145.718 389.535 145.784 399.354 146.07 409.393 144.749 419.08 146.819 427.665 149.042 423.901 159.852 423.461 166.192 402.568 246.415 380.993 326.484 360.057 406.685 358.538 412.739 356.315 419.74 349.952 422.294 342.313 425.266 333.925 425.618 325.802 425.86 313.099 425.86 300.044 426.543 287.737 422.888 282.19 421.149 279.79 415.315 278.557 410.186 264.512 354.443 250.246 298.745 236.288 242.981 235.584 240.163 234.461 237.499 233.25 234.879 219.667 292.405 205.709 349.864 192.082 407.39 190.673 413.158 188.824 420.004 182.769 422.514 173.655 425.882 163.704 425.75 154.106 425.926 142.834 425.86 131.32 426.19 120.423 422.91 114.699 420.973 111.969 415.095 110.648 409.635 89.6235 328.311 68.2468 247.098 47.2004 165.774 45.7474 159.742 42.7533 150.275 50.5907 147.413Z" fill="#708FC5" transform="matrix(1 0 0 1.00037 1490 895)"/><path d="M53.6479 22.3993 52.862 22.3993 52.862 22.3993C52.862 17.8041 50.9759 13.5841 47.9108 10.9583 44.7672 8.33244 40.759 7.67601 37.1438 9.17647 34.1574 2.23682 27.5557-1.32678 21.2684 0.455021 14.9812 2.23682 10.4229 8.98891 10.4229 16.7725L10.4229 16.9601C6.1004 16.1161 4.60058 18.273 1.92849 22.3993-0.665011 26.6193-0.43094 32.1523 1.37666 36.8412 3.26283 41.5302 3.66409 44.6249 7.98659 44.9062L7.98659 45 53.5694 45C58.7563 45 63.0003 39.936 63.0003 33.7465 63.0003 27.5571 58.8349 22.3993 53.6479 22.3993Z" fill="#708FC5" fill-rule="evenodd" transform="matrix(-1 0 0 1 1754 1014)"/><path d="M53.6476 21.9015 52.8617 21.9015 52.8617 21.9015C52.8617 17.4085 50.9756 13.2822 47.9105 10.7147 44.7669 8.14727 40.7588 7.50543 37.1436 8.97254 34.1572 2.18711 27.5556-1.2973 21.2683 0.444909 14.9811 2.18711 10.4228 8.78915 10.4228 16.3998L10.4228 16.5832C6.10036 15.758 4.60055 17.8669 1.92848 21.9015-0.665007 26.0278-0.430937 31.4378 1.37665 36.0225 3.26281 40.6073 3.66407 43.6332 7.98655 43.9083L7.98655 44 53.569 44C58.756 44 62.9999 39.0485 62.9999 32.9966 62.9999 26.9447 58.8346 21.9015 53.6476 21.9015Z" fill="#708FC5" fill-rule="evenodd" transform="matrix(-1 0 0 1 1592 1022)"/><path d="M53.6476 21.9015 52.8617 21.9015 52.8617 21.9015C52.8617 17.4085 50.9756 13.2822 47.9105 10.7147 44.7669 8.14727 40.7588 7.50543 37.1436 8.97254 34.1572 2.18711 27.5556-1.2973 21.2683 0.444909 14.9811 2.18711 10.4228 8.78915 10.4228 16.3998L10.4228 16.5832C6.10036 15.758 4.60055 17.8669 1.92848 21.9015-0.665007 26.0278-0.430937 31.4378 1.37665 36.0225 3.26281 40.6073 3.66407 43.6332 7.98655 43.9083L7.98655 44 53.569 44C58.756 44 62.9999 39.0485 62.9999 32.9966 62.9999 26.9447 58.8346 21.9015 53.6476 21.9015Z" fill="#708FC5" fill-rule="evenodd" transform="matrix(-1 0 0 1 1912 1025)"/><path d="M1604.77 1326.6 1605.84 1326.6 1605.84 1326.6C1605.84 1331.2 1608.41 1335.42 1612.6 1338.04 1616.89 1340.67 1622.36 1341.32 1627.3 1339.82 1631.37 1346.76 1640.38 1350.33 1648.97 1348.54 1657.55 1346.76 1663.77 1340.01 1663.77 1332.23L1663.77 1332.04C1669.67 1332.88 1671.72 1330.73 1675.37 1326.6 1678.91 1322.38 1678.59 1316.85 1676.12 1312.16 1673.55 1307.47 1673 1304.38 1667.1 1304.09L1667.1 1304 1604.87 1304C1597.79 1304 1592 1309.06 1592 1315.25 1592 1321.44 1597.69 1326.6 1604.77 1326.6Z" fill="#708FC5" fill-rule="evenodd"/><path d="M1776.62 1326.6 1777.68 1326.6 1777.68 1326.6C1777.68 1331.2 1780.22 1335.42 1784.36 1338.04 1788.6 1340.67 1794.01 1341.32 1798.89 1339.82 1802.91 1346.76 1811.82 1350.33 1820.3 1348.54 1828.79 1346.76 1834.94 1340.01 1834.94 1332.23L1834.94 1332.04C1840.77 1332.88 1842.79 1330.73 1846.4 1326.6 1849.9 1322.38 1849.58 1316.85 1847.14 1312.16 1844.6 1307.47 1844.06 1304.38 1838.22 1304.09L1838.22 1304 1776.72 1304C1769.73 1304 1764 1309.06 1764 1315.25 1764 1321.44 1769.62 1326.6 1776.62 1326.6Z" fill="#708FC5" fill-rule="evenodd"/><path d="M115.764 36.7896 114.068 36.7896 114.068 36.7896C114.068 29.2423 109.998 22.3111 103.384 17.9983 96.6004 13.6856 87.9515 12.6074 80.1505 15.0718 73.7062 3.67386 59.4609-2.17916 45.8939 0.747347 32.327 3.67386 22.491 14.7638 22.491 27.548L22.491 27.856C13.1637 26.4698 9.92731 30.0124 4.16137 36.7896-1.43499 43.7208-0.929899 52.8083 2.97061 60.5097 7.04066 68.211 7.90652 73.2939 17.2338 73.756L17.2338 73.91 115.594 73.91C126.787 73.91 135.945 65.5926 135.945 55.4268 135.945 45.2611 126.956 36.7896 115.764 36.7896Z" fill="#708FC5" fill-rule="evenodd" transform="matrix(0.294767 0.955569 0.955569 -0.294767 1480.33 1080.46)"/><path d="M115.764 36.7896 114.068 36.7896 114.068 36.7896C114.068 29.2423 109.998 22.3111 103.384 17.9983 96.6004 13.6856 87.9515 12.6074 80.1505 15.0718 73.7062 3.67386 59.4609-2.17916 45.8939 0.747347 32.327 3.67386 22.491 14.7638 22.491 27.548L22.491 27.856C13.1637 26.4698 9.92731 30.0124 4.16137 36.7896-1.43499 43.7208-0.929899 52.8083 2.97061 60.5097 7.04066 68.211 7.90652 73.2939 17.2338 73.756L17.2338 73.91 115.594 73.91C126.787 73.91 135.945 65.5926 135.945 55.4268 135.945 45.2611 126.956 36.7896 115.764 36.7896Z" fill="#708FC5" fill-rule="evenodd" transform="matrix(0.294767 0.955569 0.955569 -0.294767 1509.18 1193.28)"/><path d="M115.764 36.7896 114.068 36.7896 114.068 36.7896C114.068 29.2423 109.998 22.3111 103.384 17.9983 96.6004 13.6856 87.9515 12.6074 80.1505 15.0718 73.7062 3.67386 59.4609-2.17916 45.8939 0.747347 32.327 3.67386 22.491 14.7638 22.491 27.548L22.491 27.856C13.1637 26.4698 9.92731 30.0124 4.16137 36.7896-1.43499 43.7208-0.929899 52.8083 2.97061 60.5097 7.04066 68.211 7.90652 73.2939 17.2338 73.756L17.2338 73.91 115.594 73.91C126.787 73.91 135.945 65.5926 135.945 55.4268 135.945 45.2611 126.956 36.7896 115.764 36.7896Z" fill="#708FC5" fill-rule="evenodd" transform="matrix(0.262352 -0.964972 -0.964972 -0.262352 1920.05 1209.25)"/><path d="M115.764 36.7896 114.068 36.7896 114.068 36.7896C114.068 29.2423 109.998 22.3111 103.384 17.9983 96.6004 13.6856 87.9515 12.6074 80.1505 15.0718 73.7062 3.67386 59.4609-2.17916 45.8939 0.747347 32.327 3.67386 22.491 14.7638 22.491 27.548L22.491 27.856C13.1637 26.4698 9.92731 30.0124 4.16137 36.7896-1.43499 43.7208-0.929899 52.8083 2.97061 60.5097 7.04066 68.211 7.90652 73.2939 17.2338 73.756L17.2338 73.91 115.594 73.91C126.787 73.91 135.945 65.5926 135.945 55.4268 135.945 45.2611 126.956 36.7896 115.764 36.7896Z" fill="#708FC5" fill-rule="evenodd" transform="matrix(0.262352 -0.964972 -0.964972 -0.262352 1891.19 1329.73)"/></g></svg>