<svg width="1489" height="928" xmlns="http://www.w3.org/2000/svg" xmlns:xlink="http://www.w3.org/1999/xlink" xml:space="preserve" overflow="hidden"><defs><clipPath id="clip0"><rect x="1005" y="678" width="1489" height="928"/></clipPath></defs><g clip-path="url(#clip0)" transform="translate(-1005 -678)"><path d="M53.6479 21.9015 52.862 21.9015 52.862 21.9015C52.862 17.4085 50.9759 13.2822 47.9108 10.7147 44.7672 8.14727 40.759 7.50543 37.1438 8.97254 34.1574 2.18711 27.5557-1.2973 21.2684 0.444909 14.9812 2.18711 10.4229 8.78915 10.4229 16.3998L10.4229 16.5832C6.1004 15.758 4.60058 17.8669 1.92849 21.9015-0.665011 26.0278-0.43094 31.4378 1.37666 36.0225 3.26283 40.6073 3.66409 43.6332 7.98659 43.9083L7.98659 44 53.5694 44C58.7563 44 63.0003 39.0485 63.0003 32.9966 63.0003 26.9447 58.8349 21.9015 53.6479 21.9015Z" fill="#708FC5" fill-rule="evenodd" transform="matrix(-1 0 0 1 1501 914)"/><text fill="#323232" font-family="Arial,Arial_MSFontService,sans-serif" font-weight="700" font-size="440" transform="matrix(1 0 0 1 1667.53 1239)">FS</text><text fill="#708FC5" font-family="Calibri,Calibri_MSFontService,sans-serif" font-weight="700" font-size="440" transform="matrix(1 0 0 1 1269.01 1226)">W</text><path d="M53.6476 21.9015 52.8617 21.9015 52.8617 21.9015C52.8617 17.4085 50.9756 13.2822 47.9105 10.7147 44.7669 8.14727 40.7588 7.50543 37.1436 8.97254 34.1572 2.18711 27.5556-1.2973 21.2683 0.444909 14.9811 2.18711 10.4228 8.78915 10.4228 16.3998L10.4228 16.5832C6.10036 15.758 4.60055 17.8669 1.92848 21.9015-0.665007 26.0278-0.430937 31.4378 1.37665 36.0225 3.26281 40.6073 3.66407 43.6332 7.98655 43.9083L7.98655 44 53.569 44C58.756 44 62.9999 39.0485 62.9999 32.9966 62.9999 26.9447 58.8346 21.9015 53.6476 21.9015Z" fill="#708FC5" fill-rule="evenodd" transform="matrix(-1 0 0 1 1339 921)"/><path d="M53.6476 22.3993 52.8617 22.3993 52.8617 22.3993C52.8617 17.8041 50.9756 13.5841 47.9105 10.9583 44.7669 8.33244 40.7588 7.67601 37.1436 9.17647 34.1572 2.23682 27.5556-1.32678 21.2683 0.455021 14.9811 2.23682 10.4228 8.98891 10.4228 16.7725L10.4228 16.9601C6.10036 16.1161 4.60055 18.273 1.92848 22.3993-0.665007 26.6193-0.430937 32.1523 1.37665 36.8412 3.26281 41.5302 3.66407 44.6249 7.98655 44.9062L7.98655 45 53.569 45C58.756 45 62.9999 39.936 62.9999 33.7465 62.9999 27.5571 58.8346 22.3993 53.6476 22.3993Z" fill="#708FC5" fill-rule="evenodd" transform="matrix(-1 0 0 1 1659 924)"/><path d="M1351.77 1226.1 1352.84 1226.1 1352.84 1226.1C1352.84 1230.59 1355.41 1234.72 1359.6 1237.29 1363.89 1239.85 1369.36 1240.49 1374.3 1239.03 1378.37 1245.81 1387.38 1249.3 1395.97 1247.56 1404.55 1245.81 1410.77 1239.21 1410.77 1231.6L1410.77 1231.42C1416.67 1232.24 1418.72 1230.13 1422.37 1226.1 1425.91 1221.97 1425.59 1216.56 1423.12 1211.98 1420.55 1207.39 1420 1204.37 1414.1 1204.09L1414.1 1204 1351.87 1204C1344.79 1204 1339 1208.95 1339 1215 1339 1221.06 1344.69 1226.1 1351.77 1226.1Z" fill="#708FC5" fill-rule="evenodd"/><path d="M1523.62 1226.1 1524.68 1226.1 1524.68 1226.1C1524.68 1230.59 1527.22 1234.72 1531.36 1237.29 1535.6 1239.85 1541.01 1240.49 1545.89 1239.03 1549.91 1245.81 1558.82 1249.3 1567.3 1247.56 1575.79 1245.81 1581.94 1239.21 1581.94 1231.6L1581.94 1231.42C1587.77 1232.24 1589.79 1230.13 1593.4 1226.1 1596.9 1221.97 1596.58 1216.56 1594.14 1211.98 1591.6 1207.39 1591.06 1204.37 1585.22 1204.09L1585.22 1204 1523.72 1204C1516.73 1204 1511 1208.95 1511 1215 1511 1221.06 1516.62 1226.1 1523.62 1226.1Z" fill="#708FC5" fill-rule="evenodd"/><path d="M115.764 36.7896 114.068 36.7896 114.068 36.7896C114.068 29.2423 109.998 22.3111 103.384 17.9983 96.6004 13.6856 87.9515 12.6074 80.1505 15.0718 73.7062 3.67386 59.4609-2.17916 45.8939 0.747347 32.327 3.67386 22.491 14.7638 22.491 27.548L22.491 27.856C13.1637 26.4698 9.92731 30.0124 4.16137 36.7896-1.43499 43.7208-0.929899 52.8083 2.97061 60.5097 7.04066 68.211 7.90652 73.2939 17.2338 73.756L17.2338 73.91 115.594 73.91C126.787 73.91 135.945 65.5926 135.945 55.4268 135.945 45.2611 126.956 36.7896 115.764 36.7896Z" fill="#708FC5" fill-rule="evenodd" transform="matrix(0.294767 0.955569 0.955569 -0.294767 1227.33 979.771)"/><path d="M115.764 36.7896 114.068 36.7896 114.068 36.7896C114.068 29.2423 109.998 22.3111 103.384 17.9983 96.6004 13.6856 87.9515 12.6074 80.1505 15.0718 73.7062 3.67386 59.4609-2.17916 45.8939 0.747347 32.327 3.67386 22.491 14.7638 22.491 27.548L22.491 27.856C13.1637 26.4698 9.92731 30.0124 4.16137 36.7896-1.43499 43.7208-0.929899 52.8083 2.97061 60.5097 7.04066 68.211 7.90652 73.2939 17.2338 73.756L17.2338 73.91 115.594 73.91C126.787 73.91 135.945 65.5926 135.945 55.4268 135.945 45.2611 126.956 36.7896 115.764 36.7896Z" fill="#708FC5" fill-rule="evenodd" transform="matrix(0.294767 0.955569 0.955569 -0.294767 1256.18 1092.59)"/><path d="M115.764 36.7896 114.068 36.7896 114.068 36.7896C114.068 29.2423 109.998 22.3111 103.384 17.9983 96.6004 13.6856 87.9515 12.6074 80.1505 15.0718 73.7062 3.67386 59.4609-2.17916 45.8939 0.747347 32.327 3.67386 22.491 14.7638 22.491 27.548L22.491 27.856C13.1637 26.4698 9.92731 30.0124 4.16137 36.7896-1.43499 43.7208-0.929899 52.8083 2.97061 60.5097 7.04066 68.211 7.90652 73.2939 17.2338 73.756L17.2338 73.91 115.594 73.91C126.787 73.91 135.945 65.5926 135.945 55.4268 135.945 45.2611 126.956 36.7896 115.764 36.7896Z" fill="#708FC5" fill-rule="evenodd" transform="matrix(0.262352 -0.964972 -0.964972 -0.262352 1667.05 1108.56)"/><path d="M115.764 36.7896 114.068 36.7896 114.068 36.7896C114.068 29.2423 109.998 22.3111 103.384 17.9983 96.6004 13.6856 87.9515 12.6074 80.1505 15.0718 73.7062 3.67386 59.4609-2.17916 45.8939 0.747347 32.327 3.67386 22.491 14.7638 22.491 27.548L22.491 27.856C13.1637 26.4698 9.92731 30.0124 4.16137 36.7896-1.43499 43.7208-0.929899 52.8083 2.97061 60.5097 7.04066 68.211 7.90652 73.2939 17.2338 73.756L17.2338 73.91 115.594 73.91C126.787 73.91 135.945 65.5926 135.945 55.4268 135.945 45.2611 126.956 36.7896 115.764 36.7896Z" fill="#708FC5" fill-rule="evenodd" transform="matrix(0.262352 -0.964972 -0.964972 -0.262352 1638.19 1229.04)"/></g></svg>