<?xml version="1.0" encoding="UTF-8" ?>
<!DOCTYPE svg PUBLIC "-//W3C//DTD SVG 1.1//EN" "http://www.w3.org/Graphics/SVG/1.1/DTD/svg11.dtd">
<svg width="397px" height="257px" viewBox="0 0 397 257" version="1.1" xmlns="http://www.w3.org/2000/svg">
<g id="#323232ff">
<path fill="#323232" opacity="1.00" d=" M 325.40 65.64 C 336.93 63.36 349.15 64.50 360.03 68.95 C 363.45 70.42 367.83 72.69 367.56 77.06 C 367.58 81.67 368.22 86.52 366.96 91.00 C 365.93 93.99 362.58 92.50 360.64 91.39 C 352.86 87.02 344.06 83.70 334.98 84.54 C 329.90 84.92 324.29 87.16 322.11 92.10 C 319.59 96.99 320.75 103.46 324.86 107.13 C 330.63 112.69 338.44 115.15 345.55 118.48 C 355.45 123.13 366.04 128.55 371.29 138.70 C 375.06 145.14 375.06 152.80 374.69 160.04 C 374.33 170.17 368.17 179.27 360.42 185.42 C 351.43 191.99 340.08 195.07 329.00 194.74 C 318.89 195.21 308.65 193.04 299.64 188.42 C 296.94 186.94 293.85 185.09 293.20 181.82 C 292.23 177.62 292.49 173.23 292.81 168.96 C 293.01 166.82 294.20 163.56 296.95 164.29 C 301.18 165.57 304.58 168.69 308.74 170.18 C 318.45 174.19 330.02 176.38 339.97 171.95 C 347.92 168.51 351.37 157.26 345.60 150.44 C 338.66 142.48 327.85 140.07 318.92 135.09 C 310.10 130.94 301.54 124.76 297.68 115.49 C 293.30 104.31 293.39 90.63 300.71 80.69 C 306.22 72.29 315.71 67.41 325.40 65.64 Z" />
<path fill="#323232" opacity="1.00" d=" M 213.02 69.14 C 214.92 66.80 218.21 66.70 220.97 66.64 C 239.33 66.67 257.69 66.66 276.05 66.65 C 277.94 66.57 280.24 66.88 281.09 68.85 C 282.54 73.93 282.51 79.40 281.34 84.54 C 280.91 86.54 278.94 87.80 276.94 87.61 C 263.57 87.74 250.19 87.45 236.82 87.74 C 236.84 99.03 236.37 110.35 237.08 121.63 C 249.73 121.55 262.38 121.53 275.03 121.61 C 278.01 121.18 279.21 124.60 279.41 126.98 C 279.64 130.62 279.83 134.35 279.07 137.94 C 278.58 139.53 278.01 141.98 275.86 141.75 C 262.89 142.13 249.88 141.34 236.92 142.16 C 236.47 157.75 236.93 173.36 236.70 188.95 C 237.04 192.09 233.19 192.51 230.95 192.97 C 224.45 193.73 217.25 194.21 211.38 190.80 C 211.22 152.85 211.38 114.90 211.30 76.96 C 211.41 74.30 211.14 71.29 213.02 69.14 Z" />
</g>
<g id="#708fc5ff">
<path fill="#708fc5" opacity="1.00" d=" M 22.98 66.96 C 28.19 65.49 33.73 66.48 39.07 66.21 C 41.94 66.34 46.34 66.11 47.11 69.73 C 54.33 101.08 61.54 132.44 68.65 163.81 C 68.96 165.00 69.49 166.12 70.01 167.24 C 77.33 136.02 84.98 104.88 92.41 73.68 C 93.09 71.08 93.65 67.54 96.82 66.92 C 102.12 65.64 107.65 66.37 113.05 66.24 C 116.45 66.26 121.20 66.78 121.87 70.92 C 130.09 103.13 137.75 135.49 146.09 167.66 C 153.92 135.45 160.98 103.03 168.62 70.76 C 169.16 66.74 173.67 66.19 176.94 66.22 C 181.40 66.35 185.96 65.75 190.36 66.69 C 194.26 67.70 192.55 72.61 192.35 75.49 C 182.86 111.93 173.06 148.30 163.55 184.73 C 162.86 187.48 161.85 190.66 158.96 191.82 C 155.49 193.17 151.68 193.33 147.99 193.44 C 142.22 193.44 136.29 193.75 130.70 192.09 C 128.18 191.30 127.09 188.65 126.53 186.32 C 120.15 161.00 113.67 135.70 107.33 110.37 C 107.01 109.09 106.50 107.88 105.95 106.69 C 99.78 132.82 93.44 158.92 87.25 185.05 C 86.61 187.67 85.77 190.78 83.02 191.92 C 78.88 193.45 74.36 193.39 70.00 193.47 C 64.88 193.44 59.65 193.59 54.70 192.10 C 52.10 191.22 50.86 188.55 50.26 186.07 C 40.71 149.13 31.00 112.24 21.44 75.30 C 20.78 72.56 19.42 68.26 22.98 66.96 Z" />
</g>
</svg>
